<svg width="24" height="24" viewBox="0 0 24 24" fill="none" xmlns="http://www.w3.org/2000/svg">
<path opacity="0.4" d="M18.2869 21.184L18.2869 21.1838L18.2755 21.1878C17.6799 21.3953 16.9777 21.5 16.19 21.5H7.81C7.02227 21.5 6.32005 21.3953 5.72454 21.1878L5.72458 21.1877L5.71307 21.184C4.67927 20.8515 3.88623 20.2537 3.34693 19.4309C2.80489 18.6039 2.5 17.5195 2.5 16.19V7.81C2.5 6.08943 3.01093 4.77618 3.89355 3.89355C4.77618 3.01093 6.08943 2.5 7.81 2.5H16.19C17.9106 2.5 19.2238 3.01093 20.1064 3.89355C20.9891 4.77618 21.5 6.08943 21.5 7.81V16.19C21.5 17.5195 21.1951 18.6039 20.6531 19.4309C20.1138 20.2537 19.3207 20.8515 18.2869 21.184Z" fill="white" stroke="white"/>
<path d="M18.4406 21.66C17.7806 21.89 17.0206 22 16.1906 22H7.81055C6.98055 22 6.22055 21.89 5.56055 21.66C5.91055 19.02 8.67055 16.97 12.0005 16.97C15.3305 16.97 18.0906 19.02 18.4406 21.66Z" fill="white"/>
<path d="M15.5799 11.58C15.5799 13.56 13.9799 15.17 11.9999 15.17C10.0199 15.17 8.41992 13.56 8.41992 11.58C8.41992 9.60002 10.0199 8 11.9999 8C13.9799 8 15.5799 9.60002 15.5799 11.58Z" fill="white"/>
</svg>
