<svg width="1082" height="1094" viewBox="0 0 1082 1094" fill="none" xmlns="http://www.w3.org/2000/svg">
<rect x="461" y="37" width="160" height="1020" fill="#0D1E3D" fillOpacity="0.4"/>
<path d="M599.481 1094C625.27 1094 645.914 1073.02 648.641 1047.38C670.278 843.919 831.919 682.278 1035.38 660.641C1061.02 657.914 1082 637.27 1082 611.481L1082 518.091C1082 492.301 1061.02 471.213 1035.3 473.12C728.674 495.856 483.856 740.674 461.12 1047.3C459.213 1073.02 480.301 1094 506.09 1094L599.481 1094Z" fill="#0D1E3D"/>
<path d="M599.481 1094C625.27 1094 645.914 1073.02 648.641 1047.38C670.278 843.919 831.919 682.278 1035.38 660.641C1061.02 657.914 1082 637.27 1082 611.481L1082 518.091C1082 492.301 1061.02 471.213 1035.3 473.12C728.674 495.856 483.856 740.674 461.12 1047.3C459.213 1073.02 480.301 1094 506.09 1094L599.481 1094Z" stroke="#0D1E3D"/>
<path d="M482.519 0C456.73 0 436.086 20.9774 433.359 46.6219C411.722 250.081 250.081 411.722 46.622 433.359C20.9774 436.086 0 456.73 0 482.519L0 575.91C0 601.699 20.9791 622.787 46.6976 620.88C353.326 598.144 598.144 353.326 620.88 46.6976C622.787 20.9791 601.699 0 575.91 0L482.519 0Z" fill="#0D1E3D"/>
<path d="M482.519 0C456.73 0 436.086 20.9774 433.359 46.6219C411.722 250.081 250.081 411.722 46.622 433.359C20.9774 436.086 0 456.73 0 482.519L0 575.91C0 601.699 20.9791 622.787 46.6976 620.88C353.326 598.144 598.144 353.326 620.88 46.6976C622.787 20.9791 601.699 0 575.91 0L482.519 0Z" stroke="#0D1E3D"/>
</svg>
