<svg width="2579" height="1774" viewBox="0 0 2579 1774" fill="none" xmlns="http://www.w3.org/2000/svg">
<g opacity="0.2">
<path d="M113.995 606.295C-139.305 1075.35 46.2113 1643.33 517.382 1915.36C988.554 2187.39 1573.2 2064.06 1852.76 1610.17L1455.33 1380.71C1304.93 1609.36 972.612 1689.02 729.198 1548.48C485.785 1407.95 388.611 1080.32 511.427 835.753L113.995 606.295Z" fill="#1E293B"/>
<path d="M2203.74 84.4188L2601.18 313.876L1852.76 1610.17L1455.33 1380.71L2203.74 84.4188Z" fill="#1E293B"/>
<path d="M994.946 -59.0908L1235 -474.884L2601.18 313.876L2361.12 729.669L994.946 -59.0908Z" fill="#1E293B"/>
<path d="M1963.69 500.212L2203.74 84.4188L2601.18 313.876L2361.12 729.669L1963.69 500.212Z" fill="#1E293B"/>
<path d="M1455.33 1380.71L1695.39 964.921L2092.82 1194.38L1852.76 1610.17L1455.33 1380.71Z" fill="#1E293B"/>
</g>
</svg>
