<svg width="250" height="250" viewBox="0 0 250 250" fill="none" xmlns="http://www.w3.org/2000/svg">
<rect width="250" height="250" fill="#FFA299"/>
<g clip-path="url(#clip0_1587_128)">
<path d="M184.835 129.499H163.401C144.678 129.499 129.501 144.677 129.501 163.399V184.833C159.051 182.642 182.644 159.049 184.835 129.499Z" fill="#C92C1E"/>
<path d="M120.501 184.833V163.399C120.501 144.677 105.323 129.499 86.6008 129.499H65.167C67.358 159.049 90.9511 182.642 120.501 184.833Z" fill="#C92C1E"/>
<path d="M184.835 120.499C182.644 90.9496 159.051 67.3565 129.501 65.1655V86.5993C129.501 105.322 144.678 120.499 163.401 120.499H184.835Z" fill="#C92C1E"/>
<path d="M120.501 65.1655C90.9511 67.3565 67.358 90.9496 65.167 120.499H86.6008C105.323 120.499 120.501 105.322 120.501 86.5993V65.1655Z" fill="#C92C1E"/>
<path d="M105.749 124.999C114.067 120.843 120.845 114.065 125.001 105.747C129.157 114.065 135.935 120.843 144.253 124.999C135.935 129.155 129.157 135.933 125.001 144.251C120.845 135.933 114.067 129.155 105.749 124.999Z" fill="#C92C1E"/>
</g>
<defs>
<clipPath id="clip0_1587_128">
<rect width="120" height="120" fill="white" transform="translate(65 65)"/>
</clipPath>
</defs>
</svg>
