<svg width="250" height="250" viewBox="0 0 250 250" fill="none" xmlns="http://www.w3.org/2000/svg">
<rect width="250" height="250" fill="#96FFDF"/>
<path d="M125 95C125 111.569 111.569 125 95 125H65V95C65 78.4314 78.4314 65 95 65C111.569 65 125 78.4314 125 95Z" fill="#17CF97"/>
<path d="M125 155C125 138.431 138.431 125 155 125H185V155C185 171.569 171.569 185 155 185C138.431 185 125 171.569 125 155Z" fill="#17CF97"/>
<path d="M65 155C65 171.569 78.4314 185 95 185H125V155C125 138.431 111.569 125 95 125C78.4314 125 65 138.431 65 155Z" fill="#17CF97"/>
<path d="M185 95C185 78.4314 171.569 65 155 65H125V95C125 111.569 138.431 125 155 125C171.569 125 185 111.569 185 95Z" fill="#17CF97"/>
</svg>
