<svg width="250" height="250" viewBox="0 0 250 250" fill="none" xmlns="http://www.w3.org/2000/svg">
<rect width="250" height="250" fill="#9CCDFF"/>
<path fill-rule="evenodd" clip-rule="evenodd" d="M141.667 100.056C136.734 96.7595 130.933 95 125 95V65C136.867 65 148.467 68.5189 158.334 75.1118C168.201 81.7047 175.891 91.0754 180.433 102.039C184.974 113.002 186.162 125.067 183.847 136.705C181.532 148.344 175.818 159.035 167.426 167.426C159.035 175.818 148.344 181.532 136.705 183.847C125.067 186.162 113.002 184.974 102.039 180.433C91.0754 175.891 81.7047 168.201 75.1118 158.334C68.5189 148.467 65 136.867 65 125H95C95 130.933 96.7595 136.734 100.056 141.667C103.352 146.601 108.038 150.446 113.52 152.716C119.001 154.987 125.033 155.581 130.853 154.423C136.672 153.266 142.018 150.409 146.213 146.213C150.409 142.018 153.266 136.672 154.423 130.853C155.581 125.033 154.987 119.001 152.716 113.52C150.446 108.038 146.601 103.352 141.667 100.056Z" fill="#007DFC"/>
<path fill-rule="evenodd" clip-rule="evenodd" d="M95 65C95 68.9397 94.224 72.8407 92.7164 76.4805C91.2087 80.1203 88.999 83.4274 86.2132 86.2132C83.4275 88.999 80.1203 91.2088 76.4805 92.7164C72.8407 94.224 68.9396 95 65 95L65 125C72.8793 125 80.6815 123.448 87.961 120.433C95.2406 117.418 101.855 112.998 107.426 107.426C112.998 101.855 117.417 95.2406 120.433 87.961C123.448 80.6815 125 72.8793 125 65L95 65Z" fill="#007DFC"/>
</svg>
