<svg width="250" height="250" viewBox="0 0 250 250" fill="none" xmlns="http://www.w3.org/2000/svg">
<rect width="250" height="250" fill="#96D3FF"/>
<path d="M65.0077 72.4938C65.008 70.5125 65.7964 68.6125 67.1992 67.2115C68.602 65.8106 70.5045 65.0234 72.4885 65.0231L77.7096 65.0154C81.393 65.2166 84.8972 66.6676 87.6426 69.1282L112.491 93.9429C114.264 95.7139 115.261 98.1155 115.261 100.62C115.261 103.125 114.264 105.526 112.491 107.298L74.9717 144.766C74.1568 145.577 73.1198 146.127 71.9915 146.35C70.8633 146.573 69.6944 146.457 68.6321 146.017C67.5697 145.577 66.6616 144.833 66.0221 143.879C65.3826 142.924 65.0404 141.802 65.0386 140.653L65.0077 72.4938ZM140.786 185C141.938 184.998 143.062 184.655 144.018 184.016C144.975 183.377 145.72 182.468 146.16 181.406C146.599 180.344 146.714 179.175 146.489 178.047C146.265 176.921 145.711 175.885 144.897 175.072L107.347 137.573C105.574 135.802 103.169 134.807 100.661 134.807C98.1527 134.807 95.7476 135.802 93.9743 137.573L69.1182 162.395C66.6581 165.139 65.2058 168.637 65 172.315L65.0078 177.529C65.008 179.51 65.7962 181.411 67.1991 182.811C68.6019 184.212 70.5045 184.999 72.4885 185H140.786ZM142.645 112.442C144.421 114.212 146.828 115.205 149.338 115.204C151.846 115.202 154.252 114.206 156.026 112.435L180.874 87.6198C183.334 84.8757 184.787 81.3775 184.993 77.7L184.992 72.4937C184.991 70.5107 184.202 68.6093 182.797 67.2071C181.393 65.8049 179.489 65.0166 177.504 65.0154L109.237 65C108.086 65.0018 106.963 65.3436 106.007 65.9822C105.051 66.6208 104.306 67.5277 103.866 68.5887C103.425 69.6495 103.309 70.817 103.532 71.9437C103.755 73.0704 104.307 74.1059 105.118 74.9197L142.645 112.442ZM162.35 180.734C165.096 183.195 168.605 184.644 172.29 184.838H177.504C179.488 184.838 181.391 184.05 182.793 182.65C184.196 181.248 184.985 179.348 184.985 177.367L185 109.177C185.004 108.026 184.664 106.9 184.025 105.942C183.387 104.984 182.478 104.238 181.413 103.797C180.348 103.356 179.177 103.241 178.047 103.467C176.917 103.692 175.88 104.249 175.067 105.064L137.532 142.548C135.758 144.32 134.761 146.722 134.76 149.228C134.758 151.733 135.753 154.137 137.525 155.911L162.35 180.734Z" fill="#1490E8"/>
</svg>
