<svg width="250" height="250" viewBox="0 0 250 250" fill="none" xmlns="http://www.w3.org/2000/svg">
<rect width="250" height="250" fill="#FFACF0"/>
<path d="M125 149C111.745 149 101 138.255 101 125C101 111.745 111.745 101 125 101C138.255 101 149 111.745 149 125C149 138.255 138.255 149 125 149Z" fill="#E01ABC"/>
<path d="M78.7848 132.764C71.8441 134.001 67.0866 140.776 69.7509 147.369C73.4706 156.573 79.4049 164.774 87.0983 171.183C98.0993 180.346 111.975 185.242 126.229 184.991C140.484 184.74 154.182 179.357 164.86 169.811C172.327 163.136 177.975 154.73 181.375 145.4C183.81 138.717 178.821 132.114 171.841 131.123C164.863 130.132 158.596 135.265 155.149 141.477C153.28 144.844 150.855 147.898 147.949 150.496C141.822 155.973 133.963 159.061 125.784 159.206C117.606 159.35 109.644 156.541 103.333 151.283C100.338 148.789 97.8087 145.822 95.8249 142.523C92.1652 136.437 85.7255 131.528 78.7848 132.764Z" fill="#E01ABC"/>
<path d="M184.536 132.911C184.842 130.439 185 127.921 185 125.367C185 92.0271 158.137 65 125 65C91.8629 65 65 92.0271 65 125.367C65 128.645 65.2598 131.863 65.7598 135C68.5158 131.204 72.817 128.494 77.463 127.67C82.4898 126.778 87.0583 128.005 90.9211 130.298C90.6929 128.687 90.5748 127.041 90.5748 125.367C90.5748 106.238 105.988 90.7311 125 90.7311C144.012 90.7311 159.425 106.238 159.425 125.367C159.425 126.628 159.358 127.874 159.228 129.1C163.009 126.672 167.533 125.285 172.588 126C177.259 126.66 181.65 129.216 184.536 132.911Z" fill="#E01ABC"/>
</svg>
