<svg width="250" height="250" viewBox="0 0 250 250" fill="none" xmlns="http://www.w3.org/2000/svg">
<rect width="250" height="250" fill="#FFB89A"/>
<path d="M124.964 65C158.122 65 185 91.862 185 125V167C185 171.774 183.102 176.352 179.725 179.728C176.347 183.104 171.766 185 166.989 185H127.966V158.678C127.966 152.672 128.332 146.45 131.484 141.338C133.74 137.675 136.759 134.539 140.335 132.144C143.911 129.749 147.96 128.15 152.208 127.457L153.358 127.271C153.832 127.109 154.243 126.803 154.535 126.396C154.826 125.989 154.983 125.501 154.983 125C154.983 124.499 154.826 124.011 154.535 123.604C154.243 123.197 153.832 122.891 153.358 122.729L152.208 122.543C146.001 121.53 140.269 118.593 135.822 114.149C131.375 109.704 128.436 103.975 127.422 97.772L127.236 96.623C127.074 96.1493 126.768 95.7381 126.361 95.4469C125.953 95.1558 125.465 94.9992 124.964 94.9992C124.463 94.9992 123.975 95.1558 123.567 95.4469C123.16 95.7381 122.854 96.1493 122.692 96.623L122.506 97.772C121.812 102.018 120.213 106.065 117.816 109.639C115.42 113.212 112.282 116.229 108.616 118.484C103.501 121.634 97.2754 122 91.2658 122H65C66.5699 90.257 92.8147 65 124.964 65Z" fill="#F06225"/>
<path d="M65 128H91.322C97.328 128 103.55 128.366 108.662 131.516C112.658 133.978 116.022 137.342 118.484 141.338C121.634 146.45 122 152.672 122 158.678V185H83C78.2261 185 73.6477 183.104 70.2721 179.728C66.8964 176.352 65 171.774 65 167V128Z" fill="#F06225"/>
</svg>
