<svg width="250" height="250" viewBox="0 0 250 250" fill="none" xmlns="http://www.w3.org/2000/svg">
<rect width="250" height="250" fill="#FFE9A1"/>
<path d="M116.249 108.623C125.633 86.2547 157.878 80.3418 174.602 98.0964C191.483 113.804 187.089 144.652 166.635 155.052C168.558 142.469 164.312 129.47 155.802 120.585C146.06 109.99 130.29 105.235 116.249 108.617V108.623ZM161.693 148.971C161.704 135.183 153.874 122.852 141.808 116.771C147.119 144.3 120.517 170.319 92.9027 164.211C98.746 176.6 111.022 184.822 125.227 184.99C145.054 185.469 161.962 168.519 161.688 148.971H161.693ZM117.803 141.538C95.084 137.608 79.4302 113.541 85.3048 91.0683C63.3126 100.6 57.9278 132.911 75.3835 149.045C91.1008 165.694 121.144 161.728 132.045 141.77C127.419 142.511 122.382 142.416 117.809 141.538H117.803ZM89.5253 100.863C89.5253 114.341 96.9808 126.419 108.615 132.653C101.523 104.635 128.41 76.6961 156.888 82.8986C138.7 51.2035 89.4464 64.3393 89.5253 100.868V100.863Z" fill="#FFB700"/>
</svg>
