<svg width="250" height="250" viewBox="0 0 250 250" fill="none" xmlns="http://www.w3.org/2000/svg">
<rect width="250" height="250" fill="#B79EFF"/>
<path fill-rule="evenodd" clip-rule="evenodd" d="M90.6582 75.7936C86.3662 78.7947 82.4851 82.3429 79.116 86.3372C92.8839 85.059 110.376 87.1461 130.683 97.3C152.369 108.143 169.831 108.509 181.984 106.165C180.882 102.826 179.493 99.6175 177.849 96.5671C163.937 98.0344 146.102 96.0922 125.317 85.6999C112.118 79.1005 100.483 76.382 90.6582 75.7936ZM169.722 84.9999C158.736 72.725 142.77 65 125 65C119.781 65 114.718 65.6663 109.891 66.9184C116.429 68.7023 123.374 71.312 130.683 74.9668C145.901 82.5756 159.039 85.0255 169.722 84.9999ZM184.583 117.884C169.901 120.783 149.626 120.188 125.317 108.033C102.59 96.6697 84.5013 96.8128 72.3017 99.5239C71.672 99.6637 71.0571 99.8107 70.4571 99.9637C68.8599 103.437 67.5849 107.09 66.6701 110.883C67.6472 110.622 68.6568 110.374 69.6985 110.143C84.4987 106.854 105.41 106.997 130.683 119.633C153.41 130.997 171.499 130.854 183.699 128.142C184.116 128.05 184.528 127.954 184.933 127.855C184.978 126.909 185 125.957 185 125C185 122.592 184.858 120.218 184.583 117.884ZM182.974 140.517C168.435 143.059 148.751 142.083 125.317 130.366C102.59 119.003 84.5013 119.146 72.3017 121.857C69.5938 122.459 67.1577 123.192 65.0088 123.965C65.0029 124.309 65 124.654 65 125C65 158.137 91.8629 185 125 185C152.771 185 176.136 166.133 182.974 140.517Z" fill="#602CF5"/>
</svg>
